<svg width="17" height="17" viewBox="0 0 17 17" fill="none" xmlns="http://www.w3.org/2000/svg">
<path d="M11.6312 10.5316C13.1312 11.3778 15.2836 9.35806 16.1312 8.48486C15.8177 7.91769 13.4077 8.96617 11.6312 10.5316Z" stroke="#BF0000"/>
<path d="M1.375 7.94629C1.04167 7.27962 0.375 4.94629 0.375 0.946289L1.875 0.446289L2.875 1.94629C2.075 1.94629 1.54167 5.94629 1.375 7.94629Z" fill="#FFFEFE" stroke="#FFFEFE" stroke-width="0.75"/>
<path d="M3.925 12.4463C3.65833 12.8018 3.125 14.0463 3.125 16.1796L4.325 16.4463L5.125 15.6463C4.485 15.6463 4.05833 13.513 3.925 12.4463Z" fill="#FFFEFE" stroke="#FFFEFE" stroke-width="0.75"/>
<path d="M10.325 12.4463C10.5917 12.8018 11.125 14.0463 11.125 16.1796L9.925 16.4463L9.125 15.6463C9.765 15.6463 10.1917 13.513 10.325 12.4463Z" fill="#FFFEFE" stroke="#FFFEFE" stroke-width="0.75"/>
<path d="M12.625 7.94629C12.9583 7.27962 13.625 4.94629 13.625 0.946289L12.125 0.446289L11.125 1.94629C11.925 1.94629 12.4583 5.94629 12.625 7.94629Z" fill="#FFFEFE" stroke="#FFFEFE" stroke-width="0.75"/>
<path d="M4.56674 0.446289L5.92156 1.7964C5.52157 1.7964 4.90009 3.11295 4.56675 3.94629C4.125 2.44629 4.23341 1.44629 4.56674 0.446289Z" fill="#FFFEFE" stroke="#FFFEFE" stroke-width="0.25"/>
<path d="M9.47982 0.446289L8.12501 1.7964C8.525 1.7964 9.14648 3.11295 9.47981 3.94629C10.125 2.44629 9.81315 1.44629 9.47982 0.446289Z" fill="#FFFEFE" stroke="#FFFEFE" stroke-width="0.25"/>
</svg>
